<svg aria-hidden="true" style="position: absolute; width: 0; height: 0; overflow: hidden;" version="1.1" xmlns="http://www.w3.org/2000/svg" xmlns:xlink="http://www.w3.org/1999/xlink">
<defs>
<symbol id="icon-check-mark-svgrepo-com" viewBox="0 0 32 32">
<path d="M1.092 15.681c4.459 4.825 8.783 9.169 12.939 14.662 4.519-8.988 9.144-18.006 16.775-27.773l-2.056-0.942c-6.444 6.834-11.45 13.303-15.8 20.99-3.025-2.725-7.914-6.581-10.899-8.563z"></path>
</symbol>
<symbol id="icon-volumeoffoutline-svgrepo-com" viewBox="0 0 32 32">
<path d="M15.791 5.316l-6.333 6.684h-3.457c-1.105 0-2 0.895-2 2v0 4c0 1.105 0.895 2 2 2v0h3.457l6.333 6.684c0.304 0.32 0.734 0.52 1.209 0.52 0.92 0 1.667-0.746 1.667-1.666v0-19.075c-0-0.92-0.746-1.666-1.667-1.666-0.476 0-0.905 0.199-1.209 0.519l-0.001 0.001zM6.667 17.333v-2.667h3.937l5.396-5.695v14.055l-5.396-5.693h-3.937zM21.724 13.608c-0.259-0.244-0.421-0.589-0.421-0.972 0-0.736 0.597-1.333 1.333-1.333 0.383 0 0.729 0.162 0.972 0.421l0.001 0.001 2.392 2.392 2.389-2.387c0.24-0.232 0.566-0.374 0.926-0.374 0.736 0 1.333 0.597 1.333 1.333 0 0.36-0.143 0.687-0.375 0.927l0-0-2.391 2.388 2.391 2.393c0.259 0.244 0.421 0.589 0.421 0.972 0 0.736-0.597 1.333-1.333 1.333-0.383 0-0.729-0.162-0.972-0.421l-0.001-0.001-2.392-2.392-2.389 2.387c-0.24 0.232-0.566 0.374-0.926 0.374-0.736 0-1.333-0.597-1.333-1.333 0-0.36 0.143-0.687 0.375-0.927l-0 0 2.391-2.388-2.391-2.393z"></path>
</symbol>
<symbol id="icon-volume" viewBox="0 0 32 32">
<path d="M9.457 20h-3.457c-1.105 0-2-0.895-2-2v0-4c0-1.105 0.895-2 2-2v0h3.457l6.908-7.292c0.829-0.875 2.301-0.288 2.301 0.919v20.749c0 1.205-1.472 1.792-2.301 0.917l-6.908-7.293zM26.761 25.427c-0.244 0.26-0.589 0.421-0.973 0.421-0.736 0-1.333-0.597-1.333-1.333 0-0.383 0.161-0.728 0.42-0.971l0.001-0.001c1.93-1.924 3.124-4.585 3.124-7.526 0-0.006 0-0.012 0-0.018v0.001c0-0.005 0-0.010 0-0.016 0-2.94-1.194-5.601-3.124-7.525l-0-0c-0.241-0.241-0.391-0.575-0.391-0.943 0-0.737 0.597-1.334 1.334-1.334 0.368 0 0.702 0.149 0.943 0.391v0c2.412 2.407 3.904 5.734 3.904 9.41 0 0.006 0 0.012 0 0.019v-0.001c0 0.004 0 0.010 0 0.015 0 3.677-1.493 7.005-3.905 9.411l-0 0zM21.864 21.068c0.22 0.167 0.499 0.268 0.801 0.268 0.434 0 0.82-0.207 1.063-0.528l0.002-0.003c1-1.318 1.603-2.985 1.603-4.794 0-0.004 0-0.007 0-0.011v0.001c0-0.003 0-0.007 0-0.010 0-1.804-0.6-3.469-1.611-4.804l0.015 0.020c-0.246-0.325-0.632-0.533-1.067-0.533-0.736 0-1.333 0.597-1.333 1.333 0 0.302 0.1 0.58 0.269 0.803l-0.002-0.003c0.687 0.915 1.063 2.024 1.063 3.195 0 1.173-0.379 2.285-1.067 3.201-0.167 0.22-0.268 0.499-0.268 0.801 0 0.434 0.207 0.82 0.528 1.063l0.003 0.002z"></path>
</symbol>
</defs>
</svg>
